<svg width="91" height="89" fill="none" xmlns="http://www.w3.org/2000/svg"><path d="M4.58496 3.7832H86.3454v81.0049H4.58496V3.7832Z" fill="url(#a)"/><path d="M4.58496 3.78375H86.3454V84.7886H4.58496V3.78375ZM.869385 88.5724H90.0789V0H.869385v88.5724ZM59.3003 31.5797c0-.3092.1072-.4548.4466-.4548h5.8413c.3037 0 .4466.1092.4466.4548v29.8698c0 .3092-.0714.4548-.4466.4548h-5.7698c-.3752 0-.4823-.1819-.4823-.4912V31.5797h-.0358Zm-.4108-8.6044c0-2.4194 1.6791-3.8565 3.787-3.8565 2.2687 0 3.787 1.5463 3.787 3.8565 0 2.4922-1.5898 3.8566-3.8584 3.8566-2.1436.0181-3.7156-1.3462-3.7156-3.8566ZM42.1694 44.0224c-1.0361-4.2021-3.5012-13.3522-4.4301-17.7909h-.0715c-.7859 4.4205-2.7509 11.9152-4.305 17.7909h8.8066Zm-10.325 6.1304-2.9296 11.3513c-.0714.3092-.1786.382-.5538.382h-5.4661c-.3752 0-.4466-.1092-.3752-.564L33.077 23.703c.1786-.6731.3036-1.2916.3751-3.1471 0-.2728.1072-.382.3037-.382h7.8062c.268 0 .3752.0728.4466.382l11.8256 40.839c.0714.3093 0 .4912-.3037.4912h-6.1629c-.3036 0-.4823-.0728-.5537-.3457l-3.0547-11.3876H31.8444Z" fill="#FF7F18"/><defs><radialGradient id="a" cx="0" cy="0" r="1" gradientUnits="userSpaceOnUse" gradientTransform="matrix(62.1406 0 0 61.2673 31.5396 21.9605)"><stop stop-color="#423325" stop-opacity=".98"/><stop offset="1" stop-color="#1C0A00"/></radialGradient></defs></svg>