<svg width="59" height="89" fill="none" xmlns="http://www.w3.org/2000/svg"><g clip-path="url(#a)"><path d="M15.2115 88.9903c8.0385 0 14.5586-6.6398 14.5586-14.8257V59.3389H15.2115c-8.03854 0-14.558668 6.6397-14.558668 14.8257 0 8.1859 6.520128 14.8257 14.558668 14.8257Z" fill="#0ACF83"/><path d="M.652832 44.4956c0-8.1859 6.520128-14.8257 14.558668-14.8257h14.5586v29.6696H15.2115C7.17296 59.3213.652832 52.6816.652832 44.4956Z" fill="#A259FF"/><path d="M.652832 14.8257C.652832 6.63973 7.17296 0 15.2115 0h14.5586v29.6696H15.2115c-8.03854 0-14.558668-6.6579-14.558668-14.8439Z" fill="#F24E1E"/><path d="M29.7881 0h14.5586c8.0385 0 14.5587 6.63973 14.5587 14.8257 0 8.186-6.5202 14.8257-14.5587 14.8257H29.7881V0Z" fill="#FF7262"/><path d="M58.9054 44.4956c0 8.186-6.5202 14.8257-14.5587 14.8257-8.0385 0-14.5586-6.6397-14.5586-14.8257 0-8.1859 6.5201-14.8257 14.5586-14.8257 8.0385 0 14.5587 6.6398 14.5587 14.8257Z" fill="#1ABCFE"/></g><defs><clipPath id="a"><path fill="#fff" transform="translate(.652832)" d="M0 0h58.2524v88.9906H0z"/></clipPath></defs></svg>