<svg aria-hidden="true" style="position:absolute;width:0;height:0;overflow:hidden" xmlns="http://www.w3.org/2000/svg"><defs>
    
    <symbol id="heart-check" viewBox="0 0 32 32"><path fill="var(--color-current)" d="M16 10.464c.872-1.016 2.208-1.664 3.6-1.664 2.464 0 4.4 1.928 4.4 4.4 0 3.016-2.72 5.488-6.84 9.224L16 23.48l-1.16-1.056C10.72 18.688 8 16.216 8 13.2c0-2.472 1.936-4.4 4.4-4.4 1.392 0 2.728.648 3.6 1.664z"/></symbol>

<symbol id="heart-uncheck" viewBox="0 0 32 32"><path fill="var(--color-current)" d="m16.08 21.24-.08.08-.088-.08c-3.8-3.448-6.312-5.728-6.312-8.04 0-1.6 1.2-2.8 2.8-2.8 1.232 0 2.432.8 2.856 1.888h1.488C17.168 11.2 18.368 10.4 19.6 10.4c1.6 0 2.8 1.2 2.8 2.8 0 2.312-2.512 4.592-6.32 8.04zM19.6 8.8c-1.392 0-2.728.648-3.6 1.664-.872-1.016-2.208-1.664-3.6-1.664-2.464 0-4.4 1.928-4.4 4.4 0 3.016 2.72 5.488 6.84 9.224L16 23.48l1.16-1.056C21.28 18.688 24 16.216 24 13.2c0-2.472-1.936-4.4-4.4-4.4z"/></symbol>

<symbol id="star-empty" viewBox="0 0 32 32"><path fill="var(--color-current)" d="m16 22.336-5.549 3.35 1.461-6.316-4.899-4.25 6.464-.546L16 8.612l2.523 5.962 6.464.546-4.899 4.25 1.461 6.316L16 22.336zm14.757-9.076-10.61-.9L16 2.576l-4.147 9.784-10.61.9 8.043 6.98-2.405 10.374 9.12-5.504 9.12 5.504-2.42-10.374 8.057-6.98z"/></symbol>

<symbol id="star-filled" viewBox="0 0 32 32"><path fill="var(--color-current)" d="m16 23.495 9.12 5.401-2.42-10.179 8.057-6.849-10.61-.898L16 1.385l-4.147 9.585-10.61.898 8.043 6.849-2.405 10.179 9.12-5.401z"/></symbol>

<symbol id="star-half" viewBox="0 0 32 32"><path fill="var(--color-current)" d="M16 22.058V7.612l2.523 6.26 6.464.575-4.899 4.489 1.461 6.648L16 22.058zm14.757-9.569-10.61-.948L16 1.242l-4.147 10.299-10.61.948 8.043 7.347-2.405 10.92 9.12-5.794 9.12 5.794-2.42-10.92 8.057-7.347z"/></symbol>

</defs></svg>